<?xml version="1.0" encoding="UTF-8"?>
<svg version="1.1" xmlns="http://www.w3.org/2000/svg" width="980" height="980">
<path d="M0 0 C323.4 0 646.8 0 980 0 C980 323.4 980 646.8 980 980 C656.6 980 333.2 980 0 980 C0 656.6 0 333.2 0 0 Z " fill="#FEFEFE" transform="translate(0,0)"/>
<path d="M0 0 C1.56662333 0.09146012 3.12958673 0.24887373 4.6875 0.4375 C7.70482181 0.79424887 10.26812401 0.97976423 13.3125 0.75 C17.20669365 1.11225057 18.52355561 3.11081488 21 6 C21.66 6.66 22.32 7.32 23 8 C23.16015625 10.3984375 23.16015625 10.3984375 23.0625 13.375 C22.18822306 24.8737312 22.18822306 24.8737312 26.5625 34.6875 C27.366875 35.450625 28.17125 36.21375 29 37 C30.5244749 43.52983416 28.24133489 48.42895565 25 54 C26.32 54 27.64 54 29 54 C32.32164017 57.13000708 33.0319363 61.19952416 34 65.5 C34.33799135 66.94283736 34.67653762 68.38554483 35.015625 69.828125 C35.2621582 70.89256836 35.2621582 70.89256836 35.51367188 71.97851562 C36.18219806 74.75732928 36.97835807 77.49829575 37.75 80.25 C39.19922254 86.16765871 39.95501469 91.93967317 39 98 C36.8125 101.25 36.8125 101.25 35.4296875 102.828125 C33.00001288 106.51910612 32.032962 110.82328724 30.8762207 115.05175781 C29.05599815 121.49965155 26.3477274 126.88533833 21.6875 131.8125 C18.27266245 135.56442452 15.46119599 139.56615311 12.67578125 143.80078125 C8.94864805 148.69210058 4.01618346 150.3647405 -1.5390625 152.62109375 C-4.30280837 154.16966882 -4.85440083 155.12736691 -6 158 C-8.34744891 160.2665024 -9.46254352 160.96335524 -12.75 161.1875 C-13.4925 161.125625 -14.235 161.06375 -15 161 C-15.0825 161.5775 -15.165 162.155 -15.25 162.75 C-16.21797787 165.6539336 -17.68694284 167.03740604 -20 169 C-20.66 169 -21.32 169 -22 169 C-21.66355469 169.84433594 -21.32710937 170.68867188 -20.98046875 171.55859375 C-19.89545737 175.36694045 -19.95761931 178.13315839 -20.3125 182.0625 C-20.46138672 183.84333984 -20.46138672 183.84333984 -20.61328125 185.66015625 C-21 189 -21 189 -21.66796875 191.80859375 C-21.77753906 192.53175781 -21.88710938 193.25492188 -22 194 C-21.34 194.66 -20.68 195.32 -20 196 C-19.29345832 201.65233342 -21.24220067 206.70567582 -23 212 C-23.66 212 -24.32 212 -25 212 C-25.02480683 217.01708622 -25.04291052 222.03413635 -25.05493164 227.05126953 C-25.05994564 228.75635399 -25.0667585 230.46143418 -25.07543945 232.16650391 C-25.08763385 234.62403419 -25.09325775 237.08150738 -25.09765625 239.5390625 C-25.10281754 240.29555084 -25.10797882 241.05203918 -25.11329651 241.83145142 C-25.11373436 246.00699737 -24.74913894 249.89849162 -24 254 C-23.91664957 255.48269409 -23.86954684 256.96809184 -23.8671875 258.453125 C-23.86589844 259.236875 -23.86460937 260.020625 -23.86328125 260.828125 C-23.86714844 261.62734375 -23.87101562 262.4265625 -23.875 263.25 C-23.87113281 264.0646875 -23.86726563 264.879375 -23.86328125 265.71875 C-23.873261 271.74652201 -23.873261 271.74652201 -25 274 C-25.07839495 275.4575653 -25.13792811 276.91616999 -25.1875 278.375 C-25.67446415 284.06175079 -27.88130003 288.29830221 -30.625 293.23828125 C-31.95551702 295.91065493 -32.66099706 298.04510868 -33 301 C-32.37498605 302.68272986 -31.69822617 304.34630643 -31 306 C-29.14909946 312.84460537 -28.19898602 319.92044997 -29 327 C-29.66 327.99 -30.32 328.98 -31 330 C-31.39387788 332.32387947 -31.73486085 334.65793749 -32 337 C-30.35 337.66 -28.7 338.32 -27 339 C-27.33 346.59 -27.66 354.18 -28 362 C-25.69 362.66 -23.38 363.32 -21 364 C-19 367 -19 367 -19.25 370.3125 C-20 374 -20 374 -21.01953125 376.734375 C-22.34124272 381.13656938 -22.38751669 385.43595433 -22.47851562 389.99023438 C-22.61974813 393.58305158 -23.06848933 396.15733079 -24.51171875 399.47265625 C-26.29403517 403.6968865 -26.44776793 406.98030309 -26.375 411.5 C-26.39240234 412.58087891 -26.39240234 412.58087891 -26.41015625 413.68359375 C-26.38204184 418.86601661 -25.16783626 422.31724609 -23 427 C-22.8125 430.9375 -22.8125 430.9375 -23 434 C-23.66 434 -24.32 434 -25 434 C-24.96519531 435.24716797 -24.96519531 435.24716797 -24.9296875 436.51953125 C-24.91164063 437.60621094 -24.89359375 438.69289063 -24.875 439.8125 C-24.84019531 441.43091797 -24.84019531 441.43091797 -24.8046875 443.08203125 C-25 446 -25 446 -27 449 C-27.25440604 452.53624398 -27.36616673 456.03278004 -27.390625 459.57617188 C-27.55632361 464.81869185 -28.53095544 467.84206715 -32 472 C-35.46637991 475.08044692 -38.66411132 476.89917821 -43.3125 477.25 C-46.32281878 475.84985173 -46.60176954 475.34520306 -47.875 472.4375 C-48.24625 471.303125 -48.6175 470.16875 -49 469 C-49.598125 469.66 -50.19625 470.32 -50.8125 471 C-53 473 -53 473 -56 473 C-56.66 475.31 -57.32 477.62 -58 480 C-57.319375 480.103125 -56.63875 480.20625 -55.9375 480.3125 C-51.81162606 481.27813007 -47.49673022 482.44090602 -44.5 485.5625 C-42.91563935 487.31516439 -42.91563935 487.31516439 -39.625 487.875 C-34.36250038 489.50818954 -31.99216927 492.5117461 -29 497 C-28.692762 501.22452244 -28.6102438 504.4153657 -31 508 C-31.66 508.66 -32.32 509.32 -33 510 C-32.67 510.66 -32.34 511.32 -32 512 C-31.43009547 516.1792999 -31.79385346 517.69372515 -34.1875 521.25 C-37.86094369 524.8418116 -40.09932309 525.88819548 -45.1875 526.1875 C-48 526 -48 526 -50 525 C-50.28875 525.7425 -50.5775 526.485 -50.875 527.25 C-52 530 -52 530 -53.046875 531.6171875 C-54.77091155 535.92727888 -54.36063513 540.673584 -54.390625 545.26953125 C-54.57949167 551.57557966 -56.24395344 555.22582156 -60.78125 559.79296875 C-61.3484375 560.25316406 -61.915625 560.71335937 -62.5 561.1875 C-63.0671875 561.65542969 -63.634375 562.12335937 -64.21875 562.60546875 C-66 564 -66 564 -68.21875 565.12109375 C-70.36537196 567.38540332 -70.25267606 568.02505345 -70.25 571.0546875 C-70.15393879 573.47623046 -69.99902377 575.89020484 -69.84375 578.30859375 C-69.68111513 582.42190074 -69.63287236 584.4089014 -71.86328125 588 C-73.87120008 589.87944139 -75.5574577 590.82084165 -78 592 C-79.06756123 595.2026837 -79.03373591 597.513711 -79.0625 600.875 C-79.52545733 607.92136743 -82.15443121 612.224254 -86.0703125 617.97265625 C-88.22018644 621.34543418 -89.34387273 624.42215646 -90.234375 628.29296875 C-91 630 -91 630 -92.97265625 630.76953125 C-95.3832718 631.92377849 -95.3832718 631.92377849 -96.01171875 635.34375 C-96.25561693 636.72600731 -96.47986009 638.11183313 -96.6875 639.5 C-96.81068604 640.22396973 -96.93387207 640.94793945 -97.06079102 641.69384766 C-97.70230721 645.58284985 -98.16102534 649.44151954 -98.4375 653.375 C-98.9258096 659.27457717 -100.79905406 665.43392017 -104.6953125 669.9765625 C-106.24386263 671.94707283 -106.24386263 671.94707283 -105.87890625 674.48046875 C-104.92335174 677.219725 -103.70739422 679.02377154 -101.9375 681.3125 C-98.75324928 685.93158176 -98.08940685 688.44538181 -99 694 C-101.98529412 699.66176471 -101.98529412 699.66176471 -106 701 C-105.98839844 701.56847656 -105.97679687 702.13695312 -105.96484375 702.72265625 C-105.95582031 703.49480469 -105.94679688 704.26695312 -105.9375 705.0625 C-105.92589844 705.81660156 -105.91429687 706.57070313 -105.90234375 707.34765625 C-106 710 -106 710 -106.625 713.359375 C-107.05524096 717.53629767 -106.33077806 720.20331336 -105.0625 724.1875 C-102.76483375 732.04274419 -100.98044052 740.30061437 -104.5 748.0625 C-107.00336692 752.37186734 -110.13880252 756.27751972 -113.10546875 760.2734375 C-115.69904732 764.00605161 -117.45369022 767.74204552 -119 772 C-119.29777344 772.75539063 -119.59554687 773.51078125 -119.90234375 774.2890625 C-122.59855125 781.91796298 -123.29346071 790.69042364 -121.3671875 798.59765625 C-120.89757965 801.67009058 -121.62456888 803.30506224 -122.875 806.125 C-123.24367188 806.97320313 -123.61234375 807.82140625 -123.9921875 808.6953125 C-124.32476562 809.45585938 -124.65734375 810.21640625 -125 811 C-125.33 811.99 -125.66 812.98 -126 814 C-126.66 814 -127.32 814 -128 814 C-127.96519531 814.95261719 -127.93039062 815.90523437 -127.89453125 816.88671875 C-127.86746094 818.14097656 -127.84039062 819.39523437 -127.8125 820.6875 C-127.77769531 821.92886719 -127.74289062 823.17023437 -127.70703125 824.44921875 C-128 828 -128 828 -129.515625 830.27734375 C-132.24667617 835.28666655 -131.06557261 841.23986213 -130.79492188 846.80859375 C-130.61764492 853.16462133 -131.16356484 856.84522621 -135 862 C-135.804375 862.433125 -136.60875 862.86625 -137.4375 863.3125 C-140.44791899 865.29497104 -140.91988561 866.6355814 -142.375 869.875 C-143.98764331 873.3884392 -145.10237635 875.45108569 -148.4375 877.4375 C-152.86673912 880.10279706 -154.57922924 884.15845847 -156.8359375 888.671875 C-158 891 -158 891 -159 892 C-161.375 892.328125 -161.375 892.328125 -164 892 C-169.7749116 885.72533644 -175.19847046 874.07319289 -175.4375 865.5 C-175.03884037 862.31072293 -174.46441088 860.74577039 -173 858 C-172.27074626 853.62447759 -173.30939728 851.34264165 -175.5 847.6875 C-178.50912225 842.15676693 -178.37238468 837.27648099 -177.99023438 831.15307617 C-177.77282812 826.8983369 -178.13693978 824.03542195 -180.04150391 820.12036133 C-182.07710578 815.61725326 -183.44582158 810.83320677 -184.98379517 806.14208984 C-186.09236895 802.76281547 -187.21226875 799.38729906 -188.33203125 796.01171875 C-188.5586998 795.32798187 -188.78536835 794.644245 -189.01890564 793.93978882 C-191.06635507 787.77558033 -193.17702162 781.6342615 -195.3125 775.5 C-199.04775555 764.75914001 -202.75342426 754.00850517 -206.4375 743.25 C-206.71362122 742.44411438 -206.98974243 741.63822876 -207.27423096 740.80792236 C-210.2119519 732.22962235 -213.13043517 723.64563995 -215.984375 715.0390625 C-216.21653214 714.33930298 -216.44868927 713.63954346 -216.68788147 712.9185791 C-217.77352876 709.64300292 -218.85438209 706.36598829 -219.92944336 703.08691406 C-220.30721924 701.9419043 -220.68499512 700.79689453 -221.07421875 699.6171875 C-221.56281372 698.12614502 -221.56281372 698.12614502 -222.0612793 696.60498047 C-222.92545537 694.02778104 -222.92545537 694.02778104 -224.12036133 691.83642578 C-225 690 -225 690 -225 687 C-225.70125 686.731875 -226.4025 686.46375 -227.125 686.1875 C-235.33701657 682.79558011 -235.33701657 682.79558011 -237.875 679.75 C-239.60210547 675.52818663 -239.74219433 671.80909868 -238 667.5625 C-236.59939958 663.97346142 -235.88188313 660.71601423 -237 657 C-238.81149913 655.50245468 -238.81149913 655.50245468 -241 654.13671875 C-243.84111251 651.76901993 -244.8780545 650.5743533 -245.65478516 646.91601562 C-245.79781088 643.15677958 -245.74748129 639.44739617 -245.625 635.6875 C-245.53944838 624.22098492 -246.69051094 614.51357639 -251.21533203 603.92285156 C-252.39336998 601.03603547 -253.32681136 598.07611795 -254.29443359 595.11352539 C-255.22456125 592.32732638 -256.29051534 589.60440771 -257.375 586.875 C-259.15977333 582.29055466 -260.79965395 577.68631781 -262.33203125 573.01171875 C-264.88490573 565.2819061 -267.57929115 557.60535084 -270.3125 549.9375 C-270.79520261 548.57992838 -271.27786806 547.22234354 -271.76049805 545.86474609 C-274.89634556 537.05300083 -278.06924155 528.25518174 -281.28344727 519.47167969 C-283.05482453 514.62583245 -284.78723164 509.76892701 -286.48193359 504.89575195 C-288.48846995 499.12680048 -290.53826894 493.43790879 -293.14453125 487.90625 C-294.02405428 485.9463996 -294.69718512 483.97486264 -295.375 481.9375 C-296.50559828 478.75413947 -298.04702607 476.54416615 -300.1875 473.9375 C-302.26442565 471.25523924 -303.00916176 469.96123872 -303.8125 466.5625 C-301.88624422 458.11660927 -293.67267559 451.33577859 -287.8125 445.25 C-282.53469439 439.78414502 -282.53469439 439.78414502 -277.63671875 433.984375 C-277.09660156 433.32953125 -276.55648438 432.6746875 -276 432 C-275.34 432 -274.68 432 -274 432 C-273.6596875 431.1646875 -273.6596875 431.1646875 -273.3125 430.3125 C-271.61856764 427.32795251 -269.48385302 425.37345955 -267 423 C-254.74323945 411.06501598 -247.05898377 398.30019924 -239.18212891 383.24658203 C-238.02218985 381.0421708 -236.84792334 378.84609708 -235.66796875 376.65234375 C-231.52378334 368.93464475 -227.59206364 361.16932547 -223.94140625 353.203125 C-221.54417074 347.98071348 -219.04814302 342.80574559 -216.5625 337.625 C-215.60525385 335.62510285 -214.64821989 333.62510411 -213.69140625 331.625 C-212.42919346 328.98651106 -211.16696626 326.34803816 -209.90185547 323.7109375 C-205.52869769 314.58434735 -201.34763474 305.37864398 -197.25 296.125 C-196.78980469 295.09068848 -196.32960938 294.05637695 -195.85546875 292.99072266 C-190.00046398 279.97375333 -190.00046398 279.97375333 -186.9375 266.125 C-186.32443304 260.51784822 -186.32443304 260.51784822 -184.56176758 257.7043457 C-182.83148667 254.70820351 -182.14938092 252.16232327 -181.421875 248.78515625 C-181.15181641 247.55724365 -180.88175781 246.32933105 -180.60351562 245.06420898 C-180.46469971 244.41330292 -180.32588379 243.76239685 -180.18286133 243.09176636 C-179.5895026 240.31008357 -178.97623884 237.53289194 -178.36450195 234.75520325 C-178.04688858 233.31173758 -177.73033049 231.86803933 -177.41479492 230.42411804 C-175.84462741 223.24571258 -174.17936717 216.09116796 -172.5 208.9375 C-172.21592285 207.71675781 -171.9318457 206.49601563 -171.63916016 205.23828125 C-170.2981683 199.48404208 -168.94146964 193.73460973 -167.53363037 187.99638367 C-166.88021482 185.32782667 -166.23601439 182.65708112 -165.5925293 179.9861145 C-165.14419132 178.14146124 -164.68273599 176.30001105 -164.22070312 174.45874023 C-162.40140161 166.88944933 -161.56260202 159.73275356 -161.30419922 151.98217773 C-161 149 -161 149 -159 147 C-158.42895883 144.1426831 -158.42895883 144.1426831 -158.10546875 140.78515625 C-157.87827148 138.92020508 -157.87827148 138.92020508 -157.64648438 137.01757812 C-157.34109509 134.38603212 -157.04677537 131.75317734 -156.76367188 129.11914062 C-156.60833984 127.87455078 -156.45300781 126.62996094 -156.29296875 125.34765625 C-156.09997192 123.63074585 -156.09997192 123.63074585 -155.90307617 121.87915039 C-155 119 -155 119 -152.54418945 117.16577148 C-151.70460693 116.78106689 -150.86502441 116.3963623 -150 116 C-149.34 115.67 -148.68 115.34 -148 115 C-144.16411738 114.82951633 -140.7348373 115.12121475 -137 116 C-136.01524786 114.90081184 -135.03739527 113.7954398 -134.0625 112.6875 C-133.51722656 112.07261719 -132.97195313 111.45773438 -132.41015625 110.82421875 C-130.79918441 108.94758042 -130.79918441 108.94758042 -130 106 C-131.32 105.34 -132.64 104.68 -134 104 C-133.36997638 95.47765347 -131.81421845 87.24085333 -130.09863281 78.8840332 C-129.62150371 76.54536276 -129.16215645 74.20360933 -128.703125 71.86132812 C-128.39951516 70.36696815 -128.09486541 68.87281899 -127.7890625 67.37890625 C-127.65456696 66.68205215 -127.52007141 65.98519806 -127.38150024 65.26722717 C-126.08044313 59.09748645 -126.08044313 59.09748645 -123 57 C-120.15234375 56.55859375 -120.15234375 56.55859375 -116.9375 56.4375 C-112.44488105 56.47950058 -112.44488105 56.47950058 -109 54 C-106.390625 53.76953125 -106.390625 53.76953125 -103.25 53.8125 C-102.17492187 53.82667969 -101.09984375 53.84085938 -99.9921875 53.85546875 C-97 54 -97 54 -93.375 54.625 C-92.199375 54.810625 -92.199375 54.810625 -91 55 C-90.01 54.01 -90.01 54.01 -89 53 C-85.7421875 53.0234375 -85.7421875 53.0234375 -81.875 53.375 C-80.59367188 53.48585937 -79.31234375 53.59671875 -77.9921875 53.7109375 C-77.00476563 53.80632812 -76.01734375 53.90171875 -75 54 C-74.525625 55.134375 -74.05125 56.26875 -73.5625 57.4375 C-72.36377917 60.75740166 -72.36377917 60.75740166 -71 62 C-67.62496297 62.42339174 -64.36535716 62.52548766 -61 62 C-60.2575 60.7625 -60.2575 60.7625 -59.5 59.5 C-58.7575 58.2625 -58.7575 58.2625 -58 57 C-54.63544363 56.53193569 -51.37681891 56.71490272 -48 57 C-47.9175 56.236875 -47.835 55.47375 -47.75 54.6875 C-46.83525863 51.40967674 -45.68583797 50.93044604 -43 49 C-42.00118497 46.0920575 -41.86488976 43.37084781 -41.875 40.3125 C-41.87113281 39.13107422 -41.87113281 39.13107422 -41.8671875 37.92578125 C-41.78872222 35.99235086 -41.78872222 35.99235086 -43 35 C-42.07605695 25.57578092 -38.93942998 16.62400134 -32 10 C-28.1875 9.625 -28.1875 9.625 -25 10 C-24.34 11.32 -23.68 12.64 -23 14 C-15.81531744 13.84304165 -15.81531744 13.84304165 -9.1875 11.4375 C-6.68412676 8.64802696 -4.42353649 5.74816023 -2.234375 2.70703125 C-1 1 -1 1 0 0 Z " fill="#FDFDFD" transform="translate(622,44)"/>
<path d="M0 0 C1.56662333 0.09146012 3.12958673 0.24887373 4.6875 0.4375 C7.70482181 0.79424887 10.26812401 0.97976423 13.3125 0.75 C17.20669365 1.11225057 18.52355561 3.11081488 21 6 C21.66 6.66 22.32 7.32 23 8 C23.16015625 10.3984375 23.16015625 10.3984375 23.0625 13.375 C22.18822306 24.8737312 22.18822306 24.8737312 26.5625 34.6875 C27.366875 35.450625 28.17125 36.21375 29 37 C30.5244749 43.52983416 28.24133489 48.42895565 25 54 C26.32 54 27.64 54 29 54 C32.32164017 57.13000708 33.0319363 61.19952416 34 65.5 C34.33799135 66.94283736 34.67653762 68.38554483 35.015625 69.828125 C35.2621582 70.89256836 35.2621582 70.89256836 35.51367188 71.97851562 C36.18219806 74.75732928 36.97835807 77.49829575 37.75 80.25 C39.19922254 86.16765871 39.95501469 91.93967317 39 98 C36.8125 101.25 36.8125 101.25 35.4296875 102.828125 C33.00001288 106.51910612 32.032962 110.82328724 30.8762207 115.05175781 C29.05599815 121.49965155 26.3477274 126.88533833 21.6875 131.8125 C18.27266245 135.56442452 15.46119599 139.56615311 12.67578125 143.80078125 C8.94864805 148.69210058 4.01618346 150.3647405 -1.5390625 152.62109375 C-4.30280837 154.16966882 -4.85440083 155.12736691 -6 158 C-8.34744891 160.2665024 -9.46254352 160.96335524 -12.75 161.1875 C-13.4925 161.125625 -14.235 161.06375 -15 161 C-15.0825 161.5775 -15.165 162.155 -15.25 162.75 C-16.21797787 165.6539336 -17.68694284 167.03740604 -20 169 C-20.66 169 -21.32 169 -22 169 C-21.66355469 169.84433594 -21.32710937 170.68867188 -20.98046875 171.55859375 C-19.89545737 175.36694045 -19.95761931 178.13315839 -20.3125 182.0625 C-20.46138672 183.84333984 -20.46138672 183.84333984 -20.61328125 185.66015625 C-21 189 -21 189 -21.66796875 191.80859375 C-21.77753906 192.53175781 -21.88710938 193.25492188 -22 194 C-21.34 194.66 -20.68 195.32 -20 196 C-19.29345832 201.65233342 -21.24220067 206.70567582 -23 212 C-23.66 212 -24.32 212 -25 212 C-25.02480683 217.01708622 -25.04291052 222.03413635 -25.05493164 227.05126953 C-25.05994564 228.75635399 -25.0667585 230.46143418 -25.07543945 232.16650391 C-25.08763385 234.62403419 -25.09325775 237.08150738 -25.09765625 239.5390625 C-25.10281754 240.29555084 -25.10797882 241.05203918 -25.11329651 241.83145142 C-25.11373436 246.00699737 -24.74913894 249.89849162 -24 254 C-23.91664957 255.48269409 -23.86954684 256.96809184 -23.8671875 258.453125 C-23.86589844 259.236875 -23.86460937 260.020625 -23.86328125 260.828125 C-23.86714844 261.62734375 -23.87101562 262.4265625 -23.875 263.25 C-23.87113281 264.0646875 -23.86726563 264.879375 -23.86328125 265.71875 C-23.873261 271.74652201 -23.873261 271.74652201 -25 274 C-25.07839495 275.4575653 -25.13792811 276.91616999 -25.1875 278.375 C-25.67446415 284.06175079 -27.88130003 288.29830221 -30.625 293.23828125 C-31.95551702 295.91065493 -32.66099706 298.04510868 -33 301 C-32.37498605 302.68272986 -31.69822617 304.34630643 -31 306 C-29.14909946 312.84460537 -28.19898602 319.92044997 -29 327 C-29.66 327.99 -30.32 328.98 -31 330 C-31.39387788 332.32387947 -31.73486085 334.65793749 -32 337 C-30.35 337.66 -28.7 338.32 -27 339 C-27.33 346.59 -27.66 354.18 -28 362 C-25.69 362.66 -23.38 363.32 -21 364 C-19 367 -19 367 -19.25 370.3125 C-20 374 -20 374 -21.01953125 376.734375 C-22.34124272 381.13656938 -22.38751669 385.43595433 -22.47851562 389.99023438 C-22.61974813 393.58305158 -23.06848933 396.15733079 -24.51171875 399.47265625 C-26.29403517 403.6968865 -26.44776793 406.98030309 -26.375 411.5 C-26.39240234 412.58087891 -26.39240234 412.58087891 -26.41015625 413.68359375 C-26.38204184 418.86601661 -25.16783626 422.31724609 -23 427 C-22.8125 430.9375 -22.8125 430.9375 -23 434 C-23.66 434 -24.32 434 -25 434 C-24.96519531 435.24716797 -24.96519531 435.24716797 -24.9296875 436.51953125 C-24.91164063 437.60621094 -24.89359375 438.69289063 -24.875 439.8125 C-24.84019531 441.43091797 -24.84019531 441.43091797 -24.8046875 443.08203125 C-25 446 -25 446 -27 449 C-27.25440604 452.53624398 -27.36616673 456.03278004 -27.390625 459.57617188 C-27.55632361 464.81869185 -28.53095544 467.84206715 -32 472 C-35.46637991 475.08044692 -38.66411132 476.89917821 -43.3125 477.25 C-46.32281878 475.84985173 -46.60176954 475.34520306 -47.875 472.4375 C-48.24625 471.303125 -48.6175 470.16875 -49 469 C-49.598125 469.66 -50.19625 470.32 -50.8125 471 C-53 473 -53 473 -56 473 C-56.66 475.31 -57.32 477.62 -58 480 C-57.319375 480.103125 -56.63875 480.20625 -55.9375 480.3125 C-51.81162606 481.27813007 -47.49673022 482.44090602 -44.5 485.5625 C-42.91563935 487.31516439 -42.91563935 487.31516439 -39.625 487.875 C-34.36250038 489.50818954 -31.99216927 492.5117461 -29 497 C-28.692762 501.22452244 -28.6102438 504.4153657 -31 508 C-31.66 508.66 -32.32 509.32 -33 510 C-32.67 510.66 -32.34 511.32 -32 512 C-31.43009547 516.1792999 -31.79385346 517.69372515 -34.1875 521.25 C-37.86094369 524.8418116 -40.09932309 525.88819548 -45.1875 526.1875 C-48 526 -48 526 -50 525 C-50.28875 525.7425 -50.5775 526.485 -50.875 527.25 C-52 530 -52 530 -53.046875 531.6171875 C-54.77091155 535.92727888 -54.36063513 540.673584 -54.390625 545.26953125 C-54.57949167 551.57557966 -56.24395344 555.22582156 -60.78125 559.79296875 C-61.3484375 560.25316406 -61.915625 560.71335937 -62.5 561.1875 C-63.0671875 561.65542969 -63.634375 562.12335937 -64.21875 562.60546875 C-66 564 -66 564 -68.21875 565.12109375 C-70.36537196 567.38540332 -70.25267606 568.02505345 -70.25 571.0546875 C-70.15393879 573.47623046 -69.99902377 575.89020484 -69.84375 578.30859375 C-69.68111513 582.42190074 -69.63287236 584.4089014 -71.86328125 588 C-73.87120008 589.87944139 -75.5574577 590.82084165 -78 592 C-79.06756123 595.2026837 -79.03373591 597.513711 -79.0625 600.875 C-79.52545733 607.92136743 -82.15443121 612.224254 -86.0703125 617.97265625 C-88.22018644 621.34543418 -89.34387273 624.42215646 -90.234375 628.29296875 C-91 630 -91 630 -92.97265625 630.76953125 C-95.3832718 631.92377849 -95.3832718 631.92377849 -96.01171875 635.34375 C-96.25561693 636.72600731 -96.47986009 638.11183313 -96.6875 639.5 C-96.81068604 640.22396973 -96.93387207 640.94793945 -97.06079102 641.69384766 C-97.70230721 645.58284985 -98.16102534 649.44151954 -98.4375 653.375 C-98.9258096 659.27457717 -100.79905406 665.43392017 -104.6953125 669.9765625 C-106.24386263 671.94707283 -106.24386263 671.94707283 -105.87890625 674.48046875 C-104.92335174 677.219725 -103.70739422 679.02377154 -101.9375 681.3125 C-98.75324928 685.93158176 -98.08940685 688.44538181 -99 694 C-101.98529412 699.66176471 -101.98529412 699.66176471 -106 701 C-105.98839844 701.56847656 -105.97679687 702.13695312 -105.96484375 702.72265625 C-105.95582031 703.49480469 -105.94679688 704.26695312 -105.9375 705.0625 C-105.92589844 705.81660156 -105.91429687 706.57070313 -105.90234375 707.34765625 C-106 710 -106 710 -106.625 713.359375 C-107.05524096 717.53629767 -106.33077806 720.20331336 -105.0625 724.1875 C-102.76483375 732.04274419 -100.98044052 740.30061437 -104.5 748.0625 C-107.00336692 752.37186734 -110.13880252 756.27751972 -113.10546875 760.2734375 C-115.69904732 764.00605161 -117.45369022 767.74204552 -119 772 C-119.29777344 772.75539063 -119.59554687 773.51078125 -119.90234375 774.2890625 C-122.59855125 781.91796298 -123.29346071 790.69042364 -121.3671875 798.59765625 C-120.89757965 801.67009058 -121.62456888 803.30506224 -122.875 806.125 C-123.24367188 806.97320313 -123.61234375 807.82140625 -123.9921875 808.6953125 C-124.32476562 809.45585938 -124.65734375 810.21640625 -125 811 C-125.33 811.99 -125.66 812.98 -126 814 C-126.66 814 -127.32 814 -128 814 C-127.96519531 814.95261719 -127.93039062 815.90523437 -127.89453125 816.88671875 C-127.86746094 818.14097656 -127.84039062 819.39523437 -127.8125 820.6875 C-127.77769531 821.92886719 -127.74289062 823.17023437 -127.70703125 824.44921875 C-128 828 -128 828 -129.515625 830.27734375 C-132.24667617 835.28666655 -131.06557261 841.23986213 -130.79492188 846.80859375 C-130.61764492 853.16462133 -131.16356484 856.84522621 -135 862 C-135.804375 862.433125 -136.60875 862.86625 -137.4375 863.3125 C-140.44791899 865.29497104 -140.91988561 866.6355814 -142.375 869.875 C-143.98764331 873.3884392 -145.10237635 875.45108569 -148.4375 877.4375 C-152.86673912 880.10279706 -154.57922924 884.15845847 -156.8359375 888.671875 C-158 891 -158 891 -159 892 C-161.375 892.328125 -161.375 892.328125 -164 892 C-169.7749116 885.72533644 -175.19847046 874.07319289 -175.4375 865.5 C-175.03884037 862.31072293 -174.46441088 860.74577039 -173 858 C-172.27074626 853.62447759 -173.30939728 851.34264165 -175.5 847.6875 C-178.50912225 842.15676693 -178.37238468 837.27648099 -177.99023438 831.15307617 C-177.77282812 826.8983369 -178.13693978 824.03542195 -180.04150391 820.12036133 C-182.07710578 815.61725326 -183.44582158 810.83320677 -184.98379517 806.14208984 C-186.09236895 802.76281547 -187.21226875 799.38729906 -188.33203125 796.01171875 C-188.5586998 795.32798187 -188.78536835 794.644245 -189.01890564 793.93978882 C-191.06635507 787.77558033 -193.17702162 781.6342615 -195.3125 775.5 C-199.04775555 764.75914001 -202.75342426 754.00850517 -206.4375 743.25 C-206.71362122 742.44411438 -206.98974243 741.63822876 -207.27423096 740.80792236 C-210.2119519 732.22962235 -213.13043517 723.64563995 -215.984375 715.0390625 C-216.21653214 714.33930298 -216.44868927 713.63954346 -216.68788147 712.9185791 C-217.77352876 709.64300292 -218.85438209 706.36598829 -219.92944336 703.08691406 C-220.30721924 701.9419043 -220.68499512 700.79689453 -221.07421875 699.6171875 C-221.56281372 698.12614502 -221.56281372 698.12614502 -222.0612793 696.60498047 C-222.92545537 694.02778104 -222.92545537 694.02778104 -224.12036133 691.83642578 C-225 690 -225 690 -225 687 C-225.70125 686.731875 -226.4025 686.46375 -227.125 686.1875 C-235.33701657 682.79558011 -235.33701657 682.79558011 -237.875 679.75 C-239.60210547 675.52818663 -239.74219433 671.80909868 -238 667.5625 C-236.59939958 663.97346142 -235.88188313 660.71601423 -237 657 C-238.81149913 655.50245468 -238.81149913 655.50245468 -241 654.13671875 C-243.84111251 651.76901993 -244.8780545 650.5743533 -245.65478516 646.91601562 C-245.79781088 643.15677958 -245.74748129 639.44739617 -245.625 635.6875 C-245.53944838 624.22098492 -246.69051094 614.51357639 -251.21533203 603.92285156 C-252.39336998 601.03603547 -253.32681136 598.07611795 -254.29443359 595.11352539 C-255.22456125 592.32732638 -256.29051534 589.60440771 -257.375 586.875 C-259.15977333 582.29055466 -260.79965395 577.68631781 -262.33203125 573.01171875 C-264.88490573 565.2819061 -267.57929115 557.60535084 -270.3125 549.9375 C-270.79520261 548.57992838 -271.27786806 547.22234354 -271.76049805 545.86474609 C-274.89634556 537.05300083 -278.06924155 528.25518174 -281.28344727 519.47167969 C-283.05482453 514.62583245 -284.78723164 509.76892701 -286.48193359 504.89575195 C-288.48846995 499.12680048 -290.53826894 493.43790879 -293.14453125 487.90625 C-294.02405428 485.9463996 -294.69718512 483.97486264 -295.375 481.9375 C-296.50559828 478.75413947 -298.04702607 476.54416615 -300.1875 473.9375 C-302.26442565 471.25523924 -303.00916176 469.96123872 -303.8125 466.5625 C-301.88624422 458.11660927 -293.67267559 451.33577859 -287.8125 445.25 C-282.53469439 439.78414502 -282.53469439 439.78414502 -277.63671875 433.984375 C-277.09660156 433.32953125 -276.55648438 432.6746875 -276 432 C-275.34 432 -274.68 432 -274 432 C-273.6596875 431.1646875 -273.6596875 431.1646875 -273.3125 430.3125 C-271.61856764 427.32795251 -269.48385302 425.37345955 -267 423 C-254.74323945 411.06501598 -247.05898377 398.30019924 -239.18212891 383.24658203 C-238.02218985 381.0421708 -236.84792334 378.84609708 -235.66796875 376.65234375 C-231.52378334 368.93464475 -227.59206364 361.16932547 -223.94140625 353.203125 C-221.54417074 347.98071348 -219.04814302 342.80574559 -216.5625 337.625 C-215.60525385 335.62510285 -214.64821989 333.62510411 -213.69140625 331.625 C-212.42919346 328.98651106 -211.16696626 326.34803816 -209.90185547 323.7109375 C-205.52869769 314.58434735 -201.34763474 305.37864398 -197.25 296.125 C-196.78980469 295.09068848 -196.32960938 294.05637695 -195.85546875 292.99072266 C-190.00046398 279.97375333 -190.00046398 279.97375333 -186.9375 266.125 C-186.32443304 260.51784822 -186.32443304 260.51784822 -184.56176758 257.7043457 C-182.83148667 254.70820351 -182.14938092 252.16232327 -181.421875 248.78515625 C-181.15181641 247.55724365 -180.88175781 246.32933105 -180.60351562 245.06420898 C-180.46469971 244.41330292 -180.32588379 243.76239685 -180.18286133 243.09176636 C-179.5895026 240.31008357 -178.97623884 237.53289194 -178.36450195 234.75520325 C-178.04688858 233.31173758 -177.73033049 231.86803933 -177.41479492 230.42411804 C-175.84462741 223.24571258 -174.17936717 216.09116796 -172.5 208.9375 C-172.21592285 207.71675781 -171.9318457 206.49601563 -171.63916016 205.23828125 C-170.2981683 199.48404208 -168.94146964 193.73460973 -167.53363037 187.99638367 C-166.88021482 185.32782667 -166.23601439 182.65708112 -165.5925293 179.9861145 C-165.14419132 178.14146124 -164.68273599 176.30001105 -164.22070312 174.45874023 C-162.40140161 166.88944933 -161.56260202 159.73275356 -161.30419922 151.98217773 C-161 149 -161 149 -159 147 C-158.42895883 144.1426831 -158.42895883 144.1426831 -158.10546875 140.78515625 C-157.87827148 138.92020508 -157.87827148 138.92020508 -157.64648438 137.01757812 C-157.34109509 134.38603212 -157.04677537 131.75317734 -156.76367188 129.11914062 C-156.60833984 127.87455078 -156.45300781 126.62996094 -156.29296875 125.34765625 C-156.09997192 123.63074585 -156.09997192 123.63074585 -155.90307617 121.87915039 C-155 119 -155 119 -152.54418945 117.16577148 C-151.70460693 116.78106689 -150.86502441 116.3963623 -150 116 C-149.34 115.67 -148.68 115.34 -148 115 C-144.16411738 114.82951633 -140.7348373 115.12121475 -137 116 C-136.01524786 114.90081184 -135.03739527 113.7954398 -134.0625 112.6875 C-133.51722656 112.07261719 -132.97195313 111.45773438 -132.41015625 110.82421875 C-130.79918441 108.94758042 -130.79918441 108.94758042 -130 106 C-131.32 105.34 -132.64 104.68 -134 104 C-133.36997638 95.47765347 -131.81421845 87.24085333 -130.09863281 78.8840332 C-129.62150371 76.54536276 -129.16215645 74.20360933 -128.703125 71.86132812 C-128.39951516 70.36696815 -128.09486541 68.87281899 -127.7890625 67.37890625 C-127.65456696 66.68205215 -127.52007141 65.98519806 -127.38150024 65.26722717 C-126.08044313 59.09748645 -126.08044313 59.09748645 -123 57 C-120.15234375 56.55859375 -120.15234375 56.55859375 -116.9375 56.4375 C-112.44488105 56.47950058 -112.44488105 56.47950058 -109 54 C-106.390625 53.76953125 -106.390625 53.76953125 -103.25 53.8125 C-102.17492187 53.82667969 -101.09984375 53.84085938 -99.9921875 53.85546875 C-97 54 -97 54 -93.375 54.625 C-92.199375 54.810625 -92.199375 54.810625 -91 55 C-90.01 54.01 -90.01 54.01 -89 53 C-85.7421875 53.0234375 -85.7421875 53.0234375 -81.875 53.375 C-80.59367188 53.48585937 -79.31234375 53.59671875 -77.9921875 53.7109375 C-77.00476563 53.80632812 -76.01734375 53.90171875 -75 54 C-74.525625 55.134375 -74.05125 56.26875 -73.5625 57.4375 C-72.36377917 60.75740166 -72.36377917 60.75740166 -71 62 C-67.62496297 62.42339174 -64.36535716 62.52548766 -61 62 C-60.2575 60.7625 -60.2575 60.7625 -59.5 59.5 C-58.7575 58.2625 -58.7575 58.2625 -58 57 C-54.63544363 56.53193569 -51.37681891 56.71490272 -48 57 C-47.9175 56.236875 -47.835 55.47375 -47.75 54.6875 C-46.83525863 51.40967674 -45.68583797 50.93044604 -43 49 C-42.00118497 46.0920575 -41.86488976 43.37084781 -41.875 40.3125 C-41.87113281 39.13107422 -41.87113281 39.13107422 -41.8671875 37.92578125 C-41.78872222 35.99235086 -41.78872222 35.99235086 -43 35 C-42.07605695 25.57578092 -38.93942998 16.62400134 -32 10 C-28.1875 9.625 -28.1875 9.625 -25 10 C-24.34 11.32 -23.68 12.64 -23 14 C-15.81531744 13.84304165 -15.81531744 13.84304165 -9.1875 11.4375 C-6.68412676 8.64802696 -4.42353649 5.74816023 -2.234375 2.70703125 C-1 1 -1 1 0 0 Z M-1.4609375 17.18359375 C-3.64126978 19.75682855 -6.11802873 20.84632022 -9.16796875 22.17578125 C-11.26943432 23.06082712 -11.26943432 23.06082712 -14 25 C-14.16671852 27.5417707 -14.16671852 27.5417707 -14 30 C-15 31 -15 31 -18.625 31.3125 C-23.36557674 31.28682901 -26.10710771 29.59526153 -30 27 C-32.12198709 30.44822902 -32.15688265 32.99949234 -32 37 C-31.91384616 43.3610253 -31.9528726 49.91655538 -34 56 C-36.00390625 57.640625 -36.00390625 57.640625 -38 59 C-39.21284876 62.05429073 -39.21284876 62.05429073 -40 65 C-41.73956658 66.73956658 -44.1936622 66.37190386 -46.5625 66.5625 C-47.57441406 66.64628906 -48.58632813 66.73007813 -49.62890625 66.81640625 C-50.41136719 66.87699219 -51.19382812 66.93757813 -52 67 C-52.66 68.65 -53.32 70.3 -54 72 C-54.78246094 72.06058594 -55.56492187 72.12117188 -56.37109375 72.18359375 C-57.38300781 72.26738281 -58.39492188 72.35117188 -59.4375 72.4375 C-60.44683594 72.51871094 -61.45617187 72.59992188 -62.49609375 72.68359375 C-64.93640779 72.73211468 -64.93640779 72.73211468 -66 74 C-69.86192778 74.48066912 -71.51621883 74.34161438 -74.73828125 72.06640625 C-76.01251953 70.82697266 -76.01251953 70.82697266 -77.3125 69.5625 C-78.17488281 68.73878906 -79.03726563 67.91507813 -79.92578125 67.06640625 C-82 65 -82 65 -83 64 C-86.58457254 64.4301487 -90.12825836 65.0217387 -93.6875 65.625 C-97 66 -97 66 -98.96386719 65.50219727 C-102.39173311 64.65673921 -105.80133509 65.44700967 -109.25 65.9375 C-109.99507812 66.03740234 -110.74015625 66.13730469 -111.5078125 66.24023438 C-113.33945442 66.48680156 -115.16986251 66.74250391 -117 67 C-117.11069824 67.56396484 -117.22139648 68.12792969 -117.33544922 68.70898438 C-117.84653116 71.30640811 -118.36074654 73.9032024 -118.875 76.5 C-119.04902344 77.386875 -119.22304688 78.27375 -119.40234375 79.1875 C-120.22052682 83.30871841 -121.07514653 87.39975271 -122.125 91.46875 C-122.87795583 94.50746461 -123.19379974 96.89920423 -123 100 C-122.34 100.33 -121.68 100.66 -121 101 C-119.63569833 104.89800478 -119.95182381 107.57540262 -121.4375 111.3125 C-124.86241029 118.34070133 -130.04527001 124.35328282 -137 128 C-140.72066485 128.45373962 -142.75041495 127.72440983 -146 126 C-146.08040527 126.68102783 -146.16081055 127.36205566 -146.24365234 128.0637207 C-146.61247819 131.14770454 -146.99359015 134.23004829 -147.375 137.3125 C-147.50132812 138.38435547 -147.62765625 139.45621094 -147.7578125 140.56054688 C-147.88671875 141.58857422 -148.015625 142.61660156 -148.1484375 143.67578125 C-148.26364746 144.62364502 -148.37885742 145.57150879 -148.49755859 146.5480957 C-149 149 -149 149 -151 152 C-151.2952034 154.28409904 -151.50962402 156.57878276 -151.6875 158.875 C-152.60177195 168.13833853 -154.79842556 176.99391264 -157.04736328 186.01049805 C-159.54430042 196.03712182 -161.84322521 206.09595993 -164.0625 216.1875 C-164.39985531 217.71521561 -164.73741925 219.24288517 -165.07519531 220.77050781 C-165.57240523 223.01933995 -166.06960411 225.26817432 -166.56643677 227.51708984 C-168.15402616 234.70238042 -169.74965448 241.88562984 -171.375 249.0625 C-171.61355713 250.13846436 -171.85211426 251.21442871 -172.09790039 252.32299805 C-172.32082764 253.30051025 -172.54375488 254.27802246 -172.7734375 255.28515625 C-173.05840088 256.55178101 -173.05840088 256.55178101 -173.34912109 257.84399414 C-174 260 -174 260 -176 263 C-176.52879365 265.13504123 -176.52879365 265.13504123 -176.875 267.5 C-177.76731152 272.34397681 -179.23991484 276.76665279 -181 281.359375 C-181.65566449 283.09073904 -182.26209529 284.8417291 -182.8125 286.609375 C-184.59389043 291.69571345 -186.81402064 296.57638285 -189 301.5 C-189.48766846 302.60206787 -189.97533691 303.70413574 -190.4777832 304.83959961 C-191.98048673 308.22851544 -193.48890826 311.61481682 -195 315 C-195.45036621 316.00949707 -195.90073242 317.01899414 -196.36474609 318.05908203 C-202.56677715 331.9247693 -209.02243174 345.60135693 -216.20117188 358.98925781 C-220.18712316 366.4252636 -223.94096357 373.94175529 -227.5625 381.5625 C-228.03002686 382.54250977 -228.49755371 383.52251953 -228.97924805 384.53222656 C-231.06162578 388.90226115 -233.1299396 393.27736749 -235.16015625 397.671875 C-239.0515413 405.9562987 -243.50156825 412.47806578 -250 419 C-251.21913077 420.38641275 -252.42815209 421.78180614 -253.625 423.1875 C-256.37651692 426.35111047 -259.27974817 429.30129787 -262.26953125 432.23828125 C-263.99451481 433.99441576 -265.59182464 435.81364395 -267.1875 437.6875 C-270.77659086 441.8599194 -274.66177211 445.69077788 -278.57446289 449.55493164 C-282.11113239 453.06473611 -285.4708595 456.67459553 -288.6953125 460.4765625 C-289.74271981 461.69958301 -290.86139532 462.86139532 -292 464 C-291.81236866 467.28354848 -290.86895616 469.22294472 -289.1953125 472.0703125 C-286.66136803 476.4286286 -284.83821529 481.00220516 -283 485.6875 C-282.67 486.50927734 -282.34 487.33105469 -282 488.17773438 C-279.79976094 493.72560279 -277.87083742 499.3327358 -276.00927734 505.00219727 C-274.40755253 509.75971517 -272.60555326 514.43701717 -270.8125 519.125 C-265.15763827 534.05449872 -259.92854826 549.13182268 -254.91796875 564.2890625 C-253.42454387 568.78215153 -251.82842856 573.20763442 -250.125 577.625 C-247.36503479 584.88369968 -244.83651333 592.20311745 -242.453125 599.59375 C-241.55955803 602.35829767 -240.60258065 605.07475259 -239.546875 607.78125 C-235.9540922 617.60978226 -235.43996377 626.65712067 -235.71557617 637.12890625 C-235.95275761 642.90074185 -235.95275761 642.90074185 -233.43652344 647.80712891 C-231.32371081 649.3435258 -231.32371081 649.3435258 -228 651 C-225.52504291 655.94991417 -226.52752116 663.34632405 -228 668.5 C-228.33 669.325 -228.66 670.15 -229 671 C-229 672.32 -229 673.64 -229 675 C-228.31292969 675.31453125 -227.62585938 675.6290625 -226.91796875 675.953125 C-225.56638672 676.59507812 -225.56638672 676.59507812 -224.1875 677.25 C-223.29417969 677.66765625 -222.40085937 678.0853125 -221.48046875 678.515625 C-216.28627301 681.62396261 -215.15565934 686.04105538 -213.5625 691.625 C-212.26538178 696.10595385 -210.8557764 700.46002057 -209.08984375 704.78125 C-206.79722326 710.39620448 -204.88848309 716.11365119 -203 721.875 C-202.505 723.37353516 -202.505 723.37353516 -202 724.90234375 C-201.33525308 726.91476118 -200.67183359 728.9276176 -200.00976562 730.94091797 C-198.64818691 735.06581674 -197.2654391 739.18355228 -195.88085938 743.30078125 C-195.0339843 745.89586186 -194.25326873 748.50140695 -193.5 751.125 C-192.27500096 755.28337513 -190.73719878 759.23988729 -189.0847168 763.24462891 C-188.00560097 765.98577256 -187.05758958 768.73978139 -186.140625 771.5390625 C-184.40202833 776.80195041 -182.6180031 782.0468709 -180.80249023 787.28369141 C-180.03658567 789.49302504 -179.27458845 791.70371589 -178.51586914 793.91552734 C-176.70875253 799.16712337 -174.87273779 804.39390032 -172.859375 809.5703125 C-169.21737772 819.06651654 -167.5356872 826.41649674 -168.0859375 836.5859375 C-167.97484081 840.99950587 -166.54538559 843.27551666 -164.12109375 846.83984375 C-162.00850499 850.91044161 -162.30698579 855.55011931 -163 860 C-163.66 860.99 -164.32 861.98 -165 863 C-165.53946183 867.85515649 -164.39966487 870.80058648 -162 875 C-158.58278079 873.86092693 -157.44259378 872.59062977 -155 870 C-153.9790625 869.1646875 -153.9790625 869.1646875 -152.9375 868.3125 C-150.90296326 865.88418195 -150.41608297 864.37213121 -149.5625 861.375 C-148.8515625 858.984375 -148.8515625 858.984375 -148 857 C-145.4375 855.625 -145.4375 855.625 -143 855 C-140.83794781 851.75692171 -140.77735934 851.03348598 -140.91015625 847.32421875 C-140.93013672 846.41349609 -140.95011719 845.50277344 -140.97070312 844.56445312 C-141.03153163 842.6580619 -141.0965839 840.75180041 -141.16601562 838.84570312 C-141.27988007 833.27419814 -140.79931547 829.94545733 -138 825 C-137.57792195 822.14316726 -137.57792195 822.14316726 -137.5625 819.25 C-137.32775998 815.14954134 -136.83476992 812.22546361 -135 808.5625 C-132.6504005 803.35981538 -132.6380315 798.4246226 -132.5 792.8125 C-131.96510341 774.12229441 -125.73687774 759.89098918 -114.50390625 744.94921875 C-111.30675067 738.6794721 -113.15361392 732.46856856 -115 726.0625 C-116.57057847 720.21253637 -117.61667513 715.06397211 -117 709 C-116.34 708.01 -115.68 707.02 -115 706 C-114.72973629 703.88455136 -114.72973629 703.88455136 -114.6875 701.625 C-114.2932941 696.84815202 -112.46244019 695.28020649 -109 692 C-108.77479402 687.72108633 -111.32566512 684.88388377 -113.84375 681.6484375 C-116.43870705 677.94887035 -116.36372487 674.36469846 -116 670 C-114.44170566 666.39598276 -112.17292454 663.25938682 -110 660 C-109.51701317 657.75104049 -109.51701317 657.75104049 -109.2890625 655.24609375 C-109.17820312 654.30830078 -109.06734375 653.37050781 -108.953125 652.40429688 C-108.73745642 650.45429349 -108.5263805 648.50377567 -108.3203125 646.55273438 C-107.51248637 639.81014017 -105.72962991 634.19662384 -103 628 C-102.67 627.01 -102.34 626.02 -102 625 C-101.01 624.67 -100.02 624.34 -99 624 C-98.18956371 622.20014245 -98.18956371 622.20014245 -97.6875 620 C-96.59848682 616.29619045 -95.23627418 613.79316959 -92.875 610.75 C-89.48453365 606.00003125 -89.51551555 601.93640166 -89.328125 596.234375 C-88.82468007 591.2718464 -86.99887409 586.98502675 -84 583 C-81.83203125 581.73046875 -81.83203125 581.73046875 -80 581 C-80.05800781 579.92621094 -80.11601563 578.85242188 -80.17578125 577.74609375 C-80.66953736 564.7944912 -80.66953736 564.7944912 -77.8125 560.6875 C-75.30209033 558.28866409 -73.03191698 556.64589779 -70 555 C-70 554.34 -70 553.68 -70 553 C-69.38125 552.71125 -68.7625 552.4225 -68.125 552.125 C-65.86674235 551.06279958 -65.86674235 551.06279958 -64 549 C-63.65783765 544.34805286 -63.65783765 544.34805286 -65 540 C-65.75310938 530.94431889 -61.17695163 524.01905712 -56 517 C-53.35541621 515.67770811 -51.32238699 515.90322806 -48.375 515.9375 C-47.37210938 515.94652344 -46.36921875 515.95554687 -45.3359375 515.96484375 C-44.17964844 515.98224609 -44.17964844 515.98224609 -43 516 C-43.11859375 515.33613281 -43.2371875 514.67226563 -43.359375 513.98828125 C-44.43275733 506.63561232 -44.43275733 506.63561232 -42 503.0625 C-41.34 502.381875 -40.68 501.70125 -40 501 C-40.33 500.01 -40.66 499.02 -41 498 C-42.94763473 497.27376332 -44.89878008 496.55469929 -46.87109375 495.8984375 C-49.10612573 494.95521299 -50.4796813 493.88901629 -52.25 492.25 C-53.61125 491.13625 -53.61125 491.13625 -55 490 C-56.93424864 490.33208626 -56.93424864 490.33208626 -59 491 C-60.58211573 491.06548492 -62.16670081 491.08578381 -63.75 491.0625 C-64.54921875 491.05347656 -65.3484375 491.04445313 -66.171875 491.03515625 C-67.07679688 491.01775391 -67.07679688 491.01775391 -68 491 C-70.20990339 484.37028983 -69.18587038 479.21408999 -66.203125 473.1015625 C-63.28169964 467.99855328 -59.1333196 464.1333196 -55 460 C-54.45214844 459.32195312 -53.90429688 458.64390625 -53.33984375 457.9453125 C-48.70112559 452.21573095 -48.70112559 452.21573095 -44.75 451 C-42.83333333 451 -40.91666667 451 -39 451 C-38.71125 450.030625 -38.4225 449.06125 -38.125 448.0625 C-37 445 -37 445 -35 444 C-35.01160156 443.09636719 -35.02320313 442.19273437 -35.03515625 441.26171875 C-35.04869141 439.49248047 -35.04869141 439.49248047 -35.0625 437.6875 C-35.07410156 436.51574219 -35.08570313 435.34398437 -35.09765625 434.13671875 C-35 431 -35 431 -34 428 C-34.30292969 427.154375 -34.60585938 426.30875 -34.91796875 425.4375 C-36.34773764 420.89527393 -36.32989562 416.73160956 -36.3125 412 C-36.32861328 411.1234375 -36.34472656 410.246875 -36.36132812 409.34375 C-36.36539182 403.94716727 -35.50510515 400.8363341 -33 396 C-32.52571412 393.02704601 -32.44486208 390.06906451 -32.375 387.0625 C-32.3232608 385.51161759 -32.26861257 383.96082926 -32.2109375 382.41015625 C-32.18652588 381.66765625 -32.16211426 380.92515625 -32.13696289 380.16015625 C-32 378 -32 378 -31.33203125 374.06640625 C-31.16767578 372.54853516 -31.16767578 372.54853516 -31 371 C-33.28536927 368.80495512 -33.28536927 368.80495512 -36 367 C-39.06688553 361.72495689 -38.06768946 355.64693135 -37.83398438 349.7734375 C-37.81529297 348.9484375 -37.79660156 348.1234375 -37.77734375 347.2734375 C-37.74890381 346.52497559 -37.72046387 345.77651367 -37.69116211 345.00537109 C-38.08549277 342.44487146 -39.14400235 341.73016221 -41 340 C-41.36328125 337.22265625 -41.36328125 337.22265625 -41.3125 334.0625 C-41.30863281 333.02222656 -41.30476562 331.98195313 -41.30078125 330.91015625 C-41.00461485 328.04465013 -40.35727861 326.48478172 -39 324 C-38.71258858 319.8492571 -38.71258858 319.8492571 -40 316 C-40.15270643 314.58605156 -40.27367453 313.16855652 -40.375 311.75 C-40.7822829 307.57701948 -42.0889554 304.73900031 -44 301 C-44.53645746 297.24479776 -44.5185864 295.70379583 -42.25 292.625 C-41.5075 291.75875 -40.765 290.8925 -40 290 C-36.66435232 284.82800272 -35.50752024 280.22451638 -35.17578125 274.1015625 C-35 272 -35 272 -34 270 C-33.90089664 267.07353605 -33.86111051 264.17605243 -33.875 261.25 C-33.87113281 260.45078125 -33.86726563 259.6515625 -33.86328125 258.828125 C-33.86872231 255.51996068 -33.92761587 252.41281572 -34.5 249.1484375 C-35.27982568 244.23797265 -35.14715516 239.33852038 -35.125 234.375 C-35.12161621 233.29847168 -35.11823242 232.22194336 -35.11474609 231.11279297 C-35.05742013 222.31525795 -34.88254826 213.73287316 -32.9375 205.125 C-31.75508343 199.79981004 -31.93042669 194.62903013 -32.125 189.19921875 C-31.99811362 185.95172055 -31.30287846 183.93776455 -30 181 C-29.71161543 176.84594326 -29.71161543 176.84594326 -31 173 C-31.47797124 169.92041317 -31.56806671 167.0707757 -31 164 C-28.3125 161.375 -28.3125 161.375 -26.640625 160.25390625 C-24.74619518 158.80602061 -23.80818311 157.33465891 -22.5625 155.3125 C-20.02339796 151.4915212 -17.39545671 151.13956285 -13 150 C-12.57460938 149.21238281 -12.14921875 148.42476562 -11.7109375 147.61328125 C-9.40175829 144.08624726 -7.19793752 143.65530708 -3.25 142.3125 C2.95131928 139.96117634 6.10574347 137.22275534 9.48046875 131.515625 C11.01731128 128.9713407 12.70681517 127.02393974 14.75 124.875 C17.99728765 121.23803783 19.57858227 117.6233482 21 113 C21.82142026 110.57925818 22.65574434 108.16287269 23.5 105.75 C23.9021875 104.56921875 24.304375 103.3884375 24.71875 102.171875 C26 99 26 99 27.65625 96.96484375 C30.68875784 92.53068258 28.86000649 86.05297929 28 81 C27.37859559 77.92501599 26.63494491 74.90205418 25.8125 71.875 C25.62880859 71.1528833 25.44511719 70.4307666 25.25585938 69.68676758 C23.72381578 64.50021265 21.65134999 62.58754725 17 60 C14.86202899 57.30429742 14.99675619 56.05946977 15.1875 52.5625 C16 49 16 49 17.625 46.3125 C19.18934448 44.15259408 19.18934448 44.15259408 18.9375 41.9375 C18.07845401 39.83426103 18.07845401 39.83426103 15.98046875 38.26171875 C13.44739142 35.36891446 13.47755962 33.66970585 13.375 29.875 C13.46216728 25.41469298 13.46216728 25.41469298 11 22 C10.79853598 18.306493 10.82646811 15.52059568 12 12 C5.29739555 11.06163538 2.51447289 11.6868671 -1.4609375 17.18359375 Z " fill="#0D0D0D" transform="translate(622,44)"/>
<path d="M0 0 C0.33 0 0.66 0 1 0 C1.33 3.3 1.66 6.6 2 10 C-5.625 14 -5.625 14 -9 14 C-10.73046409 14.15260786 -12.45962045 14.32048005 -14.1875 14.5 C-15.53908203 14.63921875 -15.53908203 14.63921875 -16.91796875 14.78125 C-17.60503906 14.8534375 -18.29210937 14.925625 -19 15 C-18.67 14.01 -18.34 13.02 -18 12 C-16.205625 12.0928125 -16.205625 12.0928125 -14.375 12.1875 C-10.22742862 12.18015917 -7.52646947 11.2963057 -4 9 C-1.29579345 6.20254495 -0.53118212 3.82451128 0 0 Z " fill="#D8D8D8" transform="translate(590,557)"/>
<path d="M0 0 C0.33 0.66 0.66 1.32 1 2 C0.04504326 3.69287785 -0.9590934 5.35857037 -2 7 C-2.33 7.99 -2.66 8.98 -3 10 C-4.65 10.33 -6.3 10.66 -8 11 C-8 14.3 -8 17.6 -8 21 C-8.33 21 -8.66 21 -9 21 C-9.05429959 19.25034642 -9.09292823 17.50020213 -9.125 15.75 C-9.15980469 14.28820312 -9.15980469 14.28820312 -9.1953125 12.796875 C-8.99535779 9.93352359 -8.57060685 8.37727908 -7 6 C-5.35178756 4.96986723 -3.68496298 3.96885372 -2 3 C-1.34 2.01 -0.68 1.02 0 0 Z " fill="#D2D2D2" transform="translate(551,629)"/>
<path d="M0 0 C0.66 0.99 1.32 1.98 2 3 C1.24203125 3.61488281 1.24203125 3.61488281 0.46875 4.2421875 C-0.1809375 4.78101563 -0.830625 5.31984375 -1.5 5.875 C-2.1496875 6.40867187 -2.799375 6.94234375 -3.46875 7.4921875 C-4.22671875 8.23855469 -4.22671875 8.23855469 -5 9 C-5 9.66 -5 10.32 -5 11 C-5.66 11 -6.32 11 -7 11 C-7.33 11.66 -7.66 12.32 -8 13 C-9.64363134 13.72159424 -11.31050386 14.39351421 -13 15 C-8.70214922 9.96836982 -4.36574458 4.97281557 0 0 Z " fill="#D7D7D7" transform="translate(363,473)"/>
<path d="M0 0 C0.66 0.33 1.32 0.66 2 1 C1.175 1.886875 0.35 2.77375 -0.5 3.6875 C-2.46099476 6.01307407 -2.97259478 6.74787194 -3.3125 9.875 C-3.209375 10.57625 -3.10625 11.2775 -3 12 C-3.66 11.67 -4.32 11.34 -5 11 C-5.99 12.485 -5.99 12.485 -7 14 C-7.66 12.68 -8.32 11.36 -9 10 C-7.71937515 8.2925002 -6.38232443 6.62626404 -5 5 C-4.34 5 -3.68 5 -3 5 C-2.690625 4.360625 -2.38125 3.72125 -2.0625 3.0625 C-1 1 -1 1 0 0 Z " fill="#282828" transform="translate(574,495)"/>
<path d="M0 0 C0.33 0 0.66 0 1 0 C1.66 2.31 2.32 4.62 3 7 C2.01 7.33 1.02 7.66 0 8 C-0.33 6.68 -0.66 5.36 -1 4 C-1.33 4.99 -1.66 5.98 -2 7 C-3.32 6.67 -4.64 6.34 -6 6 C-6 6.66 -6 7.32 -6 8 C-6.66 7.67 -7.32 7.34 -8 7 C-6.62141149 4.24282298 -4.62533685 3.53678254 -2 2 C-1.34 1.34 -0.68 0.68 0 0 Z " fill="#CFCFCF" transform="translate(573,512)"/>
<path d="M0 0 C1.98 0.99 3.96 1.98 6 3 C5.67 3.99 5.34 4.98 5 6 C3.35 5.67 1.7 5.34 0 5 C-0.66 5.99 -1.32 6.98 -2 8 C-1.125 1.125 -1.125 1.125 0 0 Z " fill="#DDDDDD" transform="translate(592,71)"/>
<path d="M0 0 C1.32 0.33 2.64 0.66 4 1 C2.70700306 3.88437779 1.34058637 5.87219421 -1 8 C-1.93065133 5.39417629 -2.14917407 4.35801776 -1.0625 1.75 C-0.711875 1.1725 -0.36125 0.595 0 0 Z " fill="#ECECEC" transform="translate(578,542)"/>
<path d="M0 0 C1 3 1 3 0 6 C-0.99 6.66 -1.98 7.32 -3 8 C-3.66 8.99 -4.32 9.98 -5 11 C-5.33 9.02 -5.66 7.04 -6 5 C-5.38125 4.731875 -4.7625 4.46375 -4.125 4.1875 C-1.7004767 3.04443152 -1.7004767 3.04443152 0 0 Z " fill="#DEDEDE" transform="translate(606,208)"/>
<path d="M0 0 C0.99 0.33 1.98 0.66 3 1 C1.60667426 4.36720387 0.0210714 5.9859524 -3 8 C-2.25 2.25 -2.25 2.25 0 0 Z " fill="#151515" transform="translate(494,160)"/>
<path d="M0 0 C0.33 0 0.66 0 1 0 C1.05379226 2.95857409 1.09357093 5.91617721 1.125 8.875 C1.15013672 10.13763672 1.15013672 10.13763672 1.17578125 11.42578125 C1.18222656 12.23144531 1.18867187 13.03710938 1.1953125 13.8671875 C1.21102295 14.98262939 1.21102295 14.98262939 1.22705078 16.12060547 C1 18 1 18 -1 20 C-1 15.89887971 -0.76733462 11.83949709 -0.5 7.75 C-0.45230469 7.00492187 -0.40460937 6.25984375 -0.35546875 5.4921875 C-0.23810965 3.66138552 -0.11920724 1.83068258 0 0 Z " fill="#C8C8C8" transform="translate(587,296)"/>
<path d="M0 0 C0.66 0.33 1.32 0.66 2 1 C1.67 1.99 1.34 2.98 1 4 C0.01 3.67 -0.98 3.34 -2 3 C-3.73324119 3.08461492 -5.46392812 3.23604355 -7.1875 3.4375 C-8.53908203 3.59025391 -8.53908203 3.59025391 -9.91796875 3.74609375 C-10.60503906 3.82988281 -11.29210937 3.91367187 -12 4 C-11.67 3.01 -11.34 2.02 -11 1 C-8.02148438 1.04882812 -8.02148438 1.04882812 -5.04296875 1.09765625 C-2.79694539 1.08263217 -2.79694539 1.08263217 0 0 Z " fill="#CECECE" transform="translate(583,568)"/>
<path d="M0 0 C0.33 0 0.66 0 1 0 C1.77916092 5.02125926 2.13016601 8.97703996 1 14 C0.01 13.34 -0.98 12.68 -2 12 C-1.34 8.04 -0.68 4.08 0 0 Z " fill="#C7C7C7" transform="translate(601,226)"/>
<path d="M0 0 C-0.33 0.99 -0.66 1.98 -1 3 C-3.5625 4.1875 -3.5625 4.1875 -6 5 C-5.34 5.33 -4.68 5.66 -4 6 C-4.99 6 -5.98 6 -7 6 C-6.75 3.625 -6.75 3.625 -6 1 C-2.69333333 -1.34666667 -2.69333333 -1.34666667 0 0 Z " fill="#262626" transform="translate(474,161)"/>
<path d="M0 0 C1.37562854 1.28965176 2.70766393 2.62689293 4 4 C4 4.66 4 5.32 4 6 C1.40759181 7.8597711 -1.14410847 9.57205423 -4 11 C-3.71125 10.484375 -3.4225 9.96875 -3.125 9.4375 C-1.71219973 6.37643275 -0.8751483 3.25055082 0 0 Z " fill="#232323" transform="translate(651,134)"/>
<path d="M0 0 C2.475 0.99 2.475 0.99 5 2 C5 3.65 5 5.3 5 7 C4.01 7.495 4.01 7.495 3 8 C1.5 6.6875 1.5 6.6875 0 5 C0 3.33333333 0 1.66666667 0 0 Z " fill="#030303" transform="translate(585,555)"/>
<path d="M0 0 C4.75 0.75 4.75 0.75 7 3 C6.67 3.99 6.34 4.98 6 6 C2.535 4.02 2.535 4.02 -1 2 C-0.67 1.34 -0.34 0.68 0 0 Z " fill="#131313" transform="translate(564,531)"/>
<path d="M0 0 C0.66 1.32 1.32 2.64 2 4 C-0.3125 6.0625 -0.3125 6.0625 -3 8 C-3.99 7.67 -4.98 7.34 -6 7 C-4.02 4.69 -2.04 2.38 0 0 Z " fill="#CDCDCD" transform="translate(649,168)"/>
<path d="M0 0 C1.98 0.495 1.98 0.495 4 1 C4 1.33 4 1.66 4 2 C5.65 2.33 7.3 2.66 9 3 C9 3.33 9 3.66 9 4 C2.9453125 4.9765625 2.9453125 4.9765625 1 5 C0.34 4.34 -0.32 3.68 -1 3 C-0.67 2.01 -0.34 1.02 0 0 Z " fill="#DADADA" transform="translate(628,41)"/>
<path d="M0 0 C0 3 0 3 -1 6 C-3.97 5.505 -3.97 5.505 -7 5 C-7 4.34 -7 3.68 -7 3 C-5.5459375 2.5359375 -5.5459375 2.5359375 -4.0625 2.0625 C-1.15934208 1.30476658 -1.15934208 1.30476658 0 0 Z " fill="#CCCCCC" transform="translate(614,202)"/>
<path d="M0 0 C1 3 1 3 -0.4375 6.1875 C-1.2109375 7.5796875 -1.2109375 7.5796875 -2 9 C-2.99 9 -3.98 9 -5 9 C-3.7508258 5.54074837 -2.32472205 2.85306797 0 0 Z " fill="#D0D0D0" transform="translate(642,176)"/>
<path d="M0 0 C2.97 1.98 2.97 1.98 6 4 C4.02 4.99 4.02 4.99 2 6 C1.01 5.34 0.02 4.68 -1 4 C-0.67 2.68 -0.34 1.36 0 0 Z " fill="#DDDDDD" transform="translate(378,695)"/>
<path d="M0 0 C0.66 0.33 1.32 0.66 2 1 C2 1.66 2 2.32 2 3 C1.34 3 0.68 3 0 3 C-0.33 3.66 -0.66 4.32 -1 5 C-2.64363134 5.72159424 -4.31050386 6.39351421 -6 7 C-4.02 4.69 -2.04 2.38 0 0 Z " fill="#E9E9E9" transform="translate(356,481)"/>
<path d="M0 0 C0.66 0.99 1.32 1.98 2 3 C0.02 5.97 0.02 5.97 -2 9 C-2.99 8.67 -3.98 8.34 -5 8 C-4.360625 7.236875 -3.72125 6.47375 -3.0625 5.6875 C-0.85767219 3.11753287 -0.85767219 3.11753287 0 0 Z " fill="#D9D9D9" transform="translate(517,790)"/>
<path d="M0 0 C0.33 0 0.66 0 1 0 C1.75 3.1875 1.75 3.1875 2 7 C0.0625 9.9375 0.0625 9.9375 -2 12 C-2.66 11.67 -3.32 11.34 -4 11 C-3.525625 10.29875 -3.05125 9.5975 -2.5625 8.875 C-0.91260143 5.83918663 -0.39631536 3.40831214 0 0 Z " fill="#383838" transform="translate(512,698)"/>
<path d="M0 0 C0.33 0 0.66 0 1 0 C1.66 3.3 2.32 6.6 3 10 C1.68 9.67 0.36 9.34 -1 9 C-0.67 6.03 -0.34 3.06 0 0 Z " fill="#E0E0E0" transform="translate(576,550)"/>
<path d="M0 0 C1.98 0.99 1.98 0.99 4 2 C4 2.66 4 3.32 4 4 C4.66 4.33 5.32 4.66 6 5 C4.35 5 2.7 5 1 5 C0.67 3.35 0.34 1.7 0 0 Z " fill="#212121" transform="translate(457,931)"/>
<path d="M0 0 C0.66 0 1.32 0 2 0 C1.67 2.31 1.34 4.62 1 7 C-0.32 7.33 -1.64 7.66 -3 8 C-2.5359375 7.13375 -2.5359375 7.13375 -2.0625 6.25 C-1.07416636 4.15705816 -0.4831387 2.25464725 0 0 Z " fill="#333333" transform="translate(581,542)"/>
<path d="M0 0 C1.5625 1.25 1.5625 1.25 3 3 C2.6875 5.1875 2.6875 5.1875 2 7 C0.68 5.68 -0.64 4.36 -2 3 C-1 1 -1 1 0 0 Z " fill="#292929" transform="translate(590,538)"/>
<path d="M0 0 C0.66 0 1.32 0 2 0 C1.34 1.98 0.68 3.96 0 6 C-0.99 6 -1.98 6 -3 6 C-2.67 4.68 -2.34 3.36 -2 2 C-1.34 2 -0.68 2 0 2 C0 1.34 0 0.68 0 0 Z " fill="#E7E7E7" transform="translate(567,518)"/>
<path d="M0 0 C2.13562754 2.13562754 2.63318342 3.06546739 3 6 C2.34 6.66 1.68 7.32 1 8 C-1 5 -1 5 -0.625 2.3125 C-0.41875 1.549375 -0.2125 0.78625 0 0 Z " fill="#DEDEDE" transform="translate(331,507)"/>
<path d="M0 0 C0.33 0.99 0.66 1.98 1 3 C-0.65 4.65 -2.3 6.3 -4 8 C-4.66 7.67 -5.32 7.34 -6 7 C-4.02 4.69 -2.04 2.38 0 0 Z " fill="#C7C7C7" transform="translate(380,454)"/>
<path d="M0 0 C-1.75 4.875 -1.75 4.875 -4 6 C-4.66 5.34 -5.32 4.68 -6 4 C-2.25 0 -2.25 0 0 0 Z " fill="#191919" transform="translate(592,335)"/>
<path d="M0 0 C0.66 0.99 1.32 1.98 2 3 C1.67 3.99 1.34 4.98 1 6 C-1.0625 6.6875 -1.0625 6.6875 -3 7 C-1.125 1.125 -1.125 1.125 0 0 Z " fill="#272727" transform="translate(439,299)"/>
<path d="M0 0 C0.33 0 0.66 0 1 0 C1 1.65 1 3.3 1 5 C1.66 5.33 2.32 5.66 3 6 C2.01 6.66 1.02 7.32 0 8 C-1.19232613 10.05003955 -1.19232613 10.05003955 -2 12 C-1.44687265 7.97007218 -0.8441938 3.97977076 0 0 Z " fill="#4C4C4C" transform="translate(581,67)"/>
</svg>
